<?xml version="1.0" encoding="utf-8" standalone="no"?>
<!DOCTYPE svg PUBLIC "-//W3C//DTD SVG 1.1//EN"
  "http://www.w3.org/Graphics/SVG/1.1/DTD/svg11.dtd">
<svg xmlns:xlink="http://www.w3.org/1999/xlink" width="864pt" height="360pt" viewBox="0 0 864 360" xmlns="http://www.w3.org/2000/svg" version="1.1">
 <metadata>
  <rdf:RDF xmlns:dc="http://purl.org/dc/elements/1.1/" xmlns:cc="http://creativecommons.org/ns#" xmlns:rdf="http://www.w3.org/1999/02/22-rdf-syntax-ns#">
   <cc:Work>
    <dc:type rdf:resource="http://purl.org/dc/dcmitype/StillImage"/>
    <dc:date>2024-06-13T20:05:15.081074</dc:date>
    <dc:format>image/svg+xml</dc:format>
    <dc:creator>
     <cc:Agent>
      <dc:title>Matplotlib v3.9.0, https://matplotlib.org/</dc:title>
     </cc:Agent>
    </dc:creator>
   </cc:Work>
  </rdf:RDF>
 </metadata>
 <defs>
  <style type="text/css">*{stroke-linejoin: round; stroke-linecap: butt}</style>
 </defs>
 <g id="figure_1">
  <g id="patch_1">
   <path d="M 0 360 
L 864 360 
L 864 0 
L 0 0 
L 0 360 
z
" style="fill: none; opacity: 0"/>
  </g>
  <g id="axes_1">
   <g id="patch_2">
    <path d="M 108 320.4 
L 777.6 320.4 
L 777.6 43.2 
L 108 43.2 
L 108 320.4 
z
" style="fill: none; opacity: 0"/>
   </g>
   <g id="matplotlib.axis_1">
    <g id="xtick_1">
     <g id="line2d_1">
      <path d="M 160.939078 320.4 
L 160.939078 43.2 
" clip-path="url(#p9a34e637c3)" style="fill: none; stroke-dasharray: 5.12,1.28,0.8,1.28; stroke-dashoffset: 0; stroke: #b0b0b0; stroke-width: 0.8"/>
     </g>
     <g id="line2d_2">
      <defs>
       <path id="medced88c0c" d="M 0 0 
L 0 3.5 
" style="stroke: #a9a9a9; stroke-width: 0.8"/>
      </defs>
      <g>
       <use xlink:href="#medced88c0c" x="160.939078" y="320.4" style="fill: #a9a9a9; stroke: #a9a9a9; stroke-width: 0.8"/>
      </g>
     </g>
     <g id="text_1">
      <!-- 2021-09 -->
      <g style="fill: #a9a9a9" transform="translate(140.047672 334.998438) scale(0.1 -0.1)">
       <defs>
        <path id="DejaVuSans-32" d="M 1228 531 
L 3431 531 
L 3431 0 
L 469 0 
L 469 531 
Q 828 903 1448 1529 
Q 2069 2156 2228 2338 
Q 2531 2678 2651 2914 
Q 2772 3150 2772 3378 
Q 2772 3750 2511 3984 
Q 2250 4219 1831 4219 
Q 1534 4219 1204 4116 
Q 875 4013 500 3803 
L 500 4441 
Q 881 4594 1212 4672 
Q 1544 4750 1819 4750 
Q 2544 4750 2975 4387 
Q 3406 4025 3406 3419 
Q 3406 3131 3298 2873 
Q 3191 2616 2906 2266 
Q 2828 2175 2409 1742 
Q 1991 1309 1228 531 
z
" transform="scale(0.015625)"/>
        <path id="DejaVuSans-30" d="M 2034 4250 
Q 1547 4250 1301 3770 
Q 1056 3291 1056 2328 
Q 1056 1369 1301 889 
Q 1547 409 2034 409 
Q 2525 409 2770 889 
Q 3016 1369 3016 2328 
Q 3016 3291 2770 3770 
Q 2525 4250 2034 4250 
z
M 2034 4750 
Q 2819 4750 3233 4129 
Q 3647 3509 3647 2328 
Q 3647 1150 3233 529 
Q 2819 -91 2034 -91 
Q 1250 -91 836 529 
Q 422 1150 422 2328 
Q 422 3509 836 4129 
Q 1250 4750 2034 4750 
z
" transform="scale(0.015625)"/>
        <path id="DejaVuSans-31" d="M 794 531 
L 1825 531 
L 1825 4091 
L 703 3866 
L 703 4441 
L 1819 4666 
L 2450 4666 
L 2450 531 
L 3481 531 
L 3481 0 
L 794 0 
L 794 531 
z
" transform="scale(0.015625)"/>
        <path id="DejaVuSans-2d" d="M 313 2009 
L 1997 2009 
L 1997 1497 
L 313 1497 
L 313 2009 
z
" transform="scale(0.015625)"/>
        <path id="DejaVuSans-39" d="M 703 97 
L 703 672 
Q 941 559 1184 500 
Q 1428 441 1663 441 
Q 2288 441 2617 861 
Q 2947 1281 2994 2138 
Q 2813 1869 2534 1725 
Q 2256 1581 1919 1581 
Q 1219 1581 811 2004 
Q 403 2428 403 3163 
Q 403 3881 828 4315 
Q 1253 4750 1959 4750 
Q 2769 4750 3195 4129 
Q 3622 3509 3622 2328 
Q 3622 1225 3098 567 
Q 2575 -91 1691 -91 
Q 1453 -91 1209 -44 
Q 966 3 703 97 
z
M 1959 2075 
Q 2384 2075 2632 2365 
Q 2881 2656 2881 3163 
Q 2881 3666 2632 3958 
Q 2384 4250 1959 4250 
Q 1534 4250 1286 3958 
Q 1038 3666 1038 3163 
Q 1038 2656 1286 2365 
Q 1534 2075 1959 2075 
z
" transform="scale(0.015625)"/>
       </defs>
       <use xlink:href="#DejaVuSans-32"/>
       <use xlink:href="#DejaVuSans-30" x="63.623047"/>
       <use xlink:href="#DejaVuSans-32" x="127.246094"/>
       <use xlink:href="#DejaVuSans-31" x="190.869141"/>
       <use xlink:href="#DejaVuSans-2d" x="254.492188"/>
       <use xlink:href="#DejaVuSans-30" x="290.576172"/>
       <use xlink:href="#DejaVuSans-39" x="354.199219"/>
      </g>
     </g>
    </g>
    <g id="xtick_2">
     <g id="line2d_3">
      <path d="M 231.332184 320.4 
L 231.332184 43.2 
" clip-path="url(#p9a34e637c3)" style="fill: none; stroke-dasharray: 5.12,1.28,0.8,1.28; stroke-dashoffset: 0; stroke: #b0b0b0; stroke-width: 0.8"/>
     </g>
     <g id="line2d_4">
      <g>
       <use xlink:href="#medced88c0c" x="231.332184" y="320.4" style="fill: #a9a9a9; stroke: #a9a9a9; stroke-width: 0.8"/>
      </g>
     </g>
     <g id="text_2">
      <!-- 2022-01 -->
      <g style="fill: #a9a9a9" transform="translate(210.440778 334.998438) scale(0.1 -0.1)">
       <use xlink:href="#DejaVuSans-32"/>
       <use xlink:href="#DejaVuSans-30" x="63.623047"/>
       <use xlink:href="#DejaVuSans-32" x="127.246094"/>
       <use xlink:href="#DejaVuSans-32" x="190.869141"/>
       <use xlink:href="#DejaVuSans-2d" x="254.492188"/>
       <use xlink:href="#DejaVuSans-30" x="290.576172"/>
       <use xlink:href="#DejaVuSans-31" x="354.199219"/>
      </g>
     </g>
    </g>
    <g id="xtick_3">
     <g id="line2d_5">
      <path d="M 300.571305 320.4 
L 300.571305 43.2 
" clip-path="url(#p9a34e637c3)" style="fill: none; stroke-dasharray: 5.12,1.28,0.8,1.28; stroke-dashoffset: 0; stroke: #b0b0b0; stroke-width: 0.8"/>
     </g>
     <g id="line2d_6">
      <g>
       <use xlink:href="#medced88c0c" x="300.571305" y="320.4" style="fill: #a9a9a9; stroke: #a9a9a9; stroke-width: 0.8"/>
      </g>
     </g>
     <g id="text_3">
      <!-- 2022-05 -->
      <g style="fill: #a9a9a9" transform="translate(279.679899 334.998438) scale(0.1 -0.1)">
       <defs>
        <path id="DejaVuSans-35" d="M 691 4666 
L 3169 4666 
L 3169 4134 
L 1269 4134 
L 1269 2991 
Q 1406 3038 1543 3061 
Q 1681 3084 1819 3084 
Q 2600 3084 3056 2656 
Q 3513 2228 3513 1497 
Q 3513 744 3044 326 
Q 2575 -91 1722 -91 
Q 1428 -91 1123 -41 
Q 819 9 494 109 
L 494 744 
Q 775 591 1075 516 
Q 1375 441 1709 441 
Q 2250 441 2565 725 
Q 2881 1009 2881 1497 
Q 2881 1984 2565 2268 
Q 2250 2553 1709 2553 
Q 1456 2553 1204 2497 
Q 953 2441 691 2322 
L 691 4666 
z
" transform="scale(0.015625)"/>
       </defs>
       <use xlink:href="#DejaVuSans-32"/>
       <use xlink:href="#DejaVuSans-30" x="63.623047"/>
       <use xlink:href="#DejaVuSans-32" x="127.246094"/>
       <use xlink:href="#DejaVuSans-32" x="190.869141"/>
       <use xlink:href="#DejaVuSans-2d" x="254.492188"/>
       <use xlink:href="#DejaVuSans-30" x="290.576172"/>
       <use xlink:href="#DejaVuSans-35" x="354.199219"/>
      </g>
     </g>
    </g>
    <g id="xtick_4">
     <g id="line2d_7">
      <path d="M 371.541405 320.4 
L 371.541405 43.2 
" clip-path="url(#p9a34e637c3)" style="fill: none; stroke-dasharray: 5.12,1.28,0.8,1.28; stroke-dashoffset: 0; stroke: #b0b0b0; stroke-width: 0.8"/>
     </g>
     <g id="line2d_8">
      <g>
       <use xlink:href="#medced88c0c" x="371.541405" y="320.4" style="fill: #a9a9a9; stroke: #a9a9a9; stroke-width: 0.8"/>
      </g>
     </g>
     <g id="text_4">
      <!-- 2022-09 -->
      <g style="fill: #a9a9a9" transform="translate(350.649998 334.998438) scale(0.1 -0.1)">
       <use xlink:href="#DejaVuSans-32"/>
       <use xlink:href="#DejaVuSans-30" x="63.623047"/>
       <use xlink:href="#DejaVuSans-32" x="127.246094"/>
       <use xlink:href="#DejaVuSans-32" x="190.869141"/>
       <use xlink:href="#DejaVuSans-2d" x="254.492188"/>
       <use xlink:href="#DejaVuSans-30" x="290.576172"/>
       <use xlink:href="#DejaVuSans-39" x="354.199219"/>
      </g>
     </g>
    </g>
    <g id="xtick_5">
     <g id="line2d_9">
      <path d="M 441.934511 320.4 
L 441.934511 43.2 
" clip-path="url(#p9a34e637c3)" style="fill: none; stroke-dasharray: 5.12,1.28,0.8,1.28; stroke-dashoffset: 0; stroke: #b0b0b0; stroke-width: 0.8"/>
     </g>
     <g id="line2d_10">
      <g>
       <use xlink:href="#medced88c0c" x="441.934511" y="320.4" style="fill: #a9a9a9; stroke: #a9a9a9; stroke-width: 0.8"/>
      </g>
     </g>
     <g id="text_5">
      <!-- 2023-01 -->
      <g style="fill: #a9a9a9" transform="translate(421.043105 334.998438) scale(0.1 -0.1)">
       <defs>
        <path id="DejaVuSans-33" d="M 2597 2516 
Q 3050 2419 3304 2112 
Q 3559 1806 3559 1356 
Q 3559 666 3084 287 
Q 2609 -91 1734 -91 
Q 1441 -91 1130 -33 
Q 819 25 488 141 
L 488 750 
Q 750 597 1062 519 
Q 1375 441 1716 441 
Q 2309 441 2620 675 
Q 2931 909 2931 1356 
Q 2931 1769 2642 2001 
Q 2353 2234 1838 2234 
L 1294 2234 
L 1294 2753 
L 1863 2753 
Q 2328 2753 2575 2939 
Q 2822 3125 2822 3475 
Q 2822 3834 2567 4026 
Q 2313 4219 1838 4219 
Q 1578 4219 1281 4162 
Q 984 4106 628 3988 
L 628 4550 
Q 988 4650 1302 4700 
Q 1616 4750 1894 4750 
Q 2613 4750 3031 4423 
Q 3450 4097 3450 3541 
Q 3450 3153 3228 2886 
Q 3006 2619 2597 2516 
z
" transform="scale(0.015625)"/>
       </defs>
       <use xlink:href="#DejaVuSans-32"/>
       <use xlink:href="#DejaVuSans-30" x="63.623047"/>
       <use xlink:href="#DejaVuSans-32" x="127.246094"/>
       <use xlink:href="#DejaVuSans-33" x="190.869141"/>
       <use xlink:href="#DejaVuSans-2d" x="254.492188"/>
       <use xlink:href="#DejaVuSans-30" x="290.576172"/>
       <use xlink:href="#DejaVuSans-31" x="354.199219"/>
      </g>
     </g>
    </g>
    <g id="xtick_6">
     <g id="line2d_11">
      <path d="M 511.173632 320.4 
L 511.173632 43.2 
" clip-path="url(#p9a34e637c3)" style="fill: none; stroke-dasharray: 5.12,1.28,0.8,1.28; stroke-dashoffset: 0; stroke: #b0b0b0; stroke-width: 0.8"/>
     </g>
     <g id="line2d_12">
      <g>
       <use xlink:href="#medced88c0c" x="511.173632" y="320.4" style="fill: #a9a9a9; stroke: #a9a9a9; stroke-width: 0.8"/>
      </g>
     </g>
     <g id="text_6">
      <!-- 2023-05 -->
      <g style="fill: #a9a9a9" transform="translate(490.282226 334.998438) scale(0.1 -0.1)">
       <use xlink:href="#DejaVuSans-32"/>
       <use xlink:href="#DejaVuSans-30" x="63.623047"/>
       <use xlink:href="#DejaVuSans-32" x="127.246094"/>
       <use xlink:href="#DejaVuSans-33" x="190.869141"/>
       <use xlink:href="#DejaVuSans-2d" x="254.492188"/>
       <use xlink:href="#DejaVuSans-30" x="290.576172"/>
       <use xlink:href="#DejaVuSans-35" x="354.199219"/>
      </g>
     </g>
    </g>
    <g id="xtick_7">
     <g id="line2d_13">
      <path d="M 582.143731 320.4 
L 582.143731 43.2 
" clip-path="url(#p9a34e637c3)" style="fill: none; stroke-dasharray: 5.12,1.28,0.8,1.28; stroke-dashoffset: 0; stroke: #b0b0b0; stroke-width: 0.8"/>
     </g>
     <g id="line2d_14">
      <g>
       <use xlink:href="#medced88c0c" x="582.143731" y="320.4" style="fill: #a9a9a9; stroke: #a9a9a9; stroke-width: 0.8"/>
      </g>
     </g>
     <g id="text_7">
      <!-- 2023-09 -->
      <g style="fill: #a9a9a9" transform="translate(561.252325 334.998438) scale(0.1 -0.1)">
       <use xlink:href="#DejaVuSans-32"/>
       <use xlink:href="#DejaVuSans-30" x="63.623047"/>
       <use xlink:href="#DejaVuSans-32" x="127.246094"/>
       <use xlink:href="#DejaVuSans-33" x="190.869141"/>
       <use xlink:href="#DejaVuSans-2d" x="254.492188"/>
       <use xlink:href="#DejaVuSans-30" x="290.576172"/>
       <use xlink:href="#DejaVuSans-39" x="354.199219"/>
      </g>
     </g>
    </g>
    <g id="xtick_8">
     <g id="line2d_15">
      <path d="M 652.536838 320.4 
L 652.536838 43.2 
" clip-path="url(#p9a34e637c3)" style="fill: none; stroke-dasharray: 5.12,1.28,0.8,1.28; stroke-dashoffset: 0; stroke: #b0b0b0; stroke-width: 0.8"/>
     </g>
     <g id="line2d_16">
      <g>
       <use xlink:href="#medced88c0c" x="652.536838" y="320.4" style="fill: #a9a9a9; stroke: #a9a9a9; stroke-width: 0.8"/>
      </g>
     </g>
     <g id="text_8">
      <!-- 2024-01 -->
      <g style="fill: #a9a9a9" transform="translate(631.645431 334.998438) scale(0.1 -0.1)">
       <defs>
        <path id="DejaVuSans-34" d="M 2419 4116 
L 825 1625 
L 2419 1625 
L 2419 4116 
z
M 2253 4666 
L 3047 4666 
L 3047 1625 
L 3713 1625 
L 3713 1100 
L 3047 1100 
L 3047 0 
L 2419 0 
L 2419 1100 
L 313 1100 
L 313 1709 
L 2253 4666 
z
" transform="scale(0.015625)"/>
       </defs>
       <use xlink:href="#DejaVuSans-32"/>
       <use xlink:href="#DejaVuSans-30" x="63.623047"/>
       <use xlink:href="#DejaVuSans-32" x="127.246094"/>
       <use xlink:href="#DejaVuSans-34" x="190.869141"/>
       <use xlink:href="#DejaVuSans-2d" x="254.492188"/>
       <use xlink:href="#DejaVuSans-30" x="290.576172"/>
       <use xlink:href="#DejaVuSans-31" x="354.199219"/>
      </g>
     </g>
    </g>
    <g id="xtick_9">
     <g id="line2d_17">
      <path d="M 722.352951 320.4 
L 722.352951 43.2 
" clip-path="url(#p9a34e637c3)" style="fill: none; stroke-dasharray: 5.12,1.28,0.8,1.28; stroke-dashoffset: 0; stroke: #b0b0b0; stroke-width: 0.8"/>
     </g>
     <g id="line2d_18">
      <g>
       <use xlink:href="#medced88c0c" x="722.352951" y="320.4" style="fill: #a9a9a9; stroke: #a9a9a9; stroke-width: 0.8"/>
      </g>
     </g>
     <g id="text_9">
      <!-- 2024-05 -->
      <g style="fill: #a9a9a9" transform="translate(701.461545 334.998438) scale(0.1 -0.1)">
       <use xlink:href="#DejaVuSans-32"/>
       <use xlink:href="#DejaVuSans-30" x="63.623047"/>
       <use xlink:href="#DejaVuSans-32" x="127.246094"/>
       <use xlink:href="#DejaVuSans-34" x="190.869141"/>
       <use xlink:href="#DejaVuSans-2d" x="254.492188"/>
       <use xlink:href="#DejaVuSans-30" x="290.576172"/>
       <use xlink:href="#DejaVuSans-35" x="354.199219"/>
      </g>
     </g>
    </g>
   </g>
   <g id="matplotlib.axis_2">
    <g id="ytick_1">
     <g id="line2d_19">
      <path d="M 108 307.840372 
L 777.6 307.840372 
" clip-path="url(#p9a34e637c3)" style="fill: none; stroke-dasharray: 5.12,1.28,0.8,1.28; stroke-dashoffset: 0; stroke: #b0b0b0; stroke-width: 0.8"/>
     </g>
     <g id="line2d_20">
      <defs>
       <path id="md79459252a" d="M 0 0 
L -3.5 0 
" style="stroke: #a9a9a9; stroke-width: 0.8"/>
      </defs>
      <g>
       <use xlink:href="#md79459252a" x="108" y="307.840372" style="fill: #a9a9a9; stroke: #a9a9a9; stroke-width: 0.8"/>
      </g>
     </g>
     <g id="text_10">
      <!-- 0 -->
      <g style="fill: #a9a9a9" transform="translate(94.6375 311.63959) scale(0.1 -0.1)">
       <use xlink:href="#DejaVuSans-30"/>
      </g>
     </g>
    </g>
    <g id="ytick_2">
     <g id="line2d_21">
      <path d="M 108 275.543031 
L 777.6 275.543031 
" clip-path="url(#p9a34e637c3)" style="fill: none; stroke-dasharray: 5.12,1.28,0.8,1.28; stroke-dashoffset: 0; stroke: #b0b0b0; stroke-width: 0.8"/>
     </g>
     <g id="line2d_22">
      <g>
       <use xlink:href="#md79459252a" x="108" y="275.543031" style="fill: #a9a9a9; stroke: #a9a9a9; stroke-width: 0.8"/>
      </g>
     </g>
     <g id="text_11">
      <!-- 800 -->
      <g style="fill: #a9a9a9" transform="translate(81.9125 279.34225) scale(0.1 -0.1)">
       <defs>
        <path id="DejaVuSans-38" d="M 2034 2216 
Q 1584 2216 1326 1975 
Q 1069 1734 1069 1313 
Q 1069 891 1326 650 
Q 1584 409 2034 409 
Q 2484 409 2743 651 
Q 3003 894 3003 1313 
Q 3003 1734 2745 1975 
Q 2488 2216 2034 2216 
z
M 1403 2484 
Q 997 2584 770 2862 
Q 544 3141 544 3541 
Q 544 4100 942 4425 
Q 1341 4750 2034 4750 
Q 2731 4750 3128 4425 
Q 3525 4100 3525 3541 
Q 3525 3141 3298 2862 
Q 3072 2584 2669 2484 
Q 3125 2378 3379 2068 
Q 3634 1759 3634 1313 
Q 3634 634 3220 271 
Q 2806 -91 2034 -91 
Q 1263 -91 848 271 
Q 434 634 434 1313 
Q 434 1759 690 2068 
Q 947 2378 1403 2484 
z
M 1172 3481 
Q 1172 3119 1398 2916 
Q 1625 2713 2034 2713 
Q 2441 2713 2670 2916 
Q 2900 3119 2900 3481 
Q 2900 3844 2670 4047 
Q 2441 4250 2034 4250 
Q 1625 4250 1398 4047 
Q 1172 3844 1172 3481 
z
" transform="scale(0.015625)"/>
       </defs>
       <use xlink:href="#DejaVuSans-38"/>
       <use xlink:href="#DejaVuSans-30" x="63.623047"/>
       <use xlink:href="#DejaVuSans-30" x="127.246094"/>
      </g>
     </g>
    </g>
    <g id="ytick_3">
     <g id="line2d_23">
      <path d="M 108 243.24569 
L 777.6 243.24569 
" clip-path="url(#p9a34e637c3)" style="fill: none; stroke-dasharray: 5.12,1.28,0.8,1.28; stroke-dashoffset: 0; stroke: #b0b0b0; stroke-width: 0.8"/>
     </g>
     <g id="line2d_24">
      <g>
       <use xlink:href="#md79459252a" x="108" y="243.24569" style="fill: #a9a9a9; stroke: #a9a9a9; stroke-width: 0.8"/>
      </g>
     </g>
     <g id="text_12">
      <!-- 1600 -->
      <g style="fill: #a9a9a9" transform="translate(75.55 247.044909) scale(0.1 -0.1)">
       <defs>
        <path id="DejaVuSans-36" d="M 2113 2584 
Q 1688 2584 1439 2293 
Q 1191 2003 1191 1497 
Q 1191 994 1439 701 
Q 1688 409 2113 409 
Q 2538 409 2786 701 
Q 3034 994 3034 1497 
Q 3034 2003 2786 2293 
Q 2538 2584 2113 2584 
z
M 3366 4563 
L 3366 3988 
Q 3128 4100 2886 4159 
Q 2644 4219 2406 4219 
Q 1781 4219 1451 3797 
Q 1122 3375 1075 2522 
Q 1259 2794 1537 2939 
Q 1816 3084 2150 3084 
Q 2853 3084 3261 2657 
Q 3669 2231 3669 1497 
Q 3669 778 3244 343 
Q 2819 -91 2113 -91 
Q 1303 -91 875 529 
Q 447 1150 447 2328 
Q 447 3434 972 4092 
Q 1497 4750 2381 4750 
Q 2619 4750 2861 4703 
Q 3103 4656 3366 4563 
z
" transform="scale(0.015625)"/>
       </defs>
       <use xlink:href="#DejaVuSans-31"/>
       <use xlink:href="#DejaVuSans-36" x="63.623047"/>
       <use xlink:href="#DejaVuSans-30" x="127.246094"/>
       <use xlink:href="#DejaVuSans-30" x="190.869141"/>
      </g>
     </g>
    </g>
    <g id="ytick_4">
     <g id="line2d_25">
      <path d="M 108 210.94835 
L 777.6 210.94835 
" clip-path="url(#p9a34e637c3)" style="fill: none; stroke-dasharray: 5.12,1.28,0.8,1.28; stroke-dashoffset: 0; stroke: #b0b0b0; stroke-width: 0.8"/>
     </g>
     <g id="line2d_26">
      <g>
       <use xlink:href="#md79459252a" x="108" y="210.94835" style="fill: #a9a9a9; stroke: #a9a9a9; stroke-width: 0.8"/>
      </g>
     </g>
     <g id="text_13">
      <!-- 2400 -->
      <g style="fill: #a9a9a9" transform="translate(75.55 214.747569) scale(0.1 -0.1)">
       <use xlink:href="#DejaVuSans-32"/>
       <use xlink:href="#DejaVuSans-34" x="63.623047"/>
       <use xlink:href="#DejaVuSans-30" x="127.246094"/>
       <use xlink:href="#DejaVuSans-30" x="190.869141"/>
      </g>
     </g>
    </g>
    <g id="ytick_5">
     <g id="line2d_27">
      <path d="M 108 178.651009 
L 777.6 178.651009 
" clip-path="url(#p9a34e637c3)" style="fill: none; stroke-dasharray: 5.12,1.28,0.8,1.28; stroke-dashoffset: 0; stroke: #b0b0b0; stroke-width: 0.8"/>
     </g>
     <g id="line2d_28">
      <g>
       <use xlink:href="#md79459252a" x="108" y="178.651009" style="fill: #a9a9a9; stroke: #a9a9a9; stroke-width: 0.8"/>
      </g>
     </g>
     <g id="text_14">
      <!-- 3200 -->
      <g style="fill: #a9a9a9" transform="translate(75.55 182.450228) scale(0.1 -0.1)">
       <use xlink:href="#DejaVuSans-33"/>
       <use xlink:href="#DejaVuSans-32" x="63.623047"/>
       <use xlink:href="#DejaVuSans-30" x="127.246094"/>
       <use xlink:href="#DejaVuSans-30" x="190.869141"/>
      </g>
     </g>
    </g>
    <g id="ytick_6">
     <g id="line2d_29">
      <path d="M 108 146.353669 
L 777.6 146.353669 
" clip-path="url(#p9a34e637c3)" style="fill: none; stroke-dasharray: 5.12,1.28,0.8,1.28; stroke-dashoffset: 0; stroke: #b0b0b0; stroke-width: 0.8"/>
     </g>
     <g id="line2d_30">
      <g>
       <use xlink:href="#md79459252a" x="108" y="146.353669" style="fill: #a9a9a9; stroke: #a9a9a9; stroke-width: 0.8"/>
      </g>
     </g>
     <g id="text_15">
      <!-- 4000 -->
      <g style="fill: #a9a9a9" transform="translate(75.55 150.152887) scale(0.1 -0.1)">
       <use xlink:href="#DejaVuSans-34"/>
       <use xlink:href="#DejaVuSans-30" x="63.623047"/>
       <use xlink:href="#DejaVuSans-30" x="127.246094"/>
       <use xlink:href="#DejaVuSans-30" x="190.869141"/>
      </g>
     </g>
    </g>
    <g id="ytick_7">
     <g id="line2d_31">
      <path d="M 108 114.056328 
L 777.6 114.056328 
" clip-path="url(#p9a34e637c3)" style="fill: none; stroke-dasharray: 5.12,1.28,0.8,1.28; stroke-dashoffset: 0; stroke: #b0b0b0; stroke-width: 0.8"/>
     </g>
     <g id="line2d_32">
      <g>
       <use xlink:href="#md79459252a" x="108" y="114.056328" style="fill: #a9a9a9; stroke: #a9a9a9; stroke-width: 0.8"/>
      </g>
     </g>
     <g id="text_16">
      <!-- 4800 -->
      <g style="fill: #a9a9a9" transform="translate(75.55 117.855547) scale(0.1 -0.1)">
       <use xlink:href="#DejaVuSans-34"/>
       <use xlink:href="#DejaVuSans-38" x="63.623047"/>
       <use xlink:href="#DejaVuSans-30" x="127.246094"/>
       <use xlink:href="#DejaVuSans-30" x="190.869141"/>
      </g>
     </g>
    </g>
    <g id="ytick_8">
     <g id="line2d_33">
      <path d="M 108 81.758988 
L 777.6 81.758988 
" clip-path="url(#p9a34e637c3)" style="fill: none; stroke-dasharray: 5.12,1.28,0.8,1.28; stroke-dashoffset: 0; stroke: #b0b0b0; stroke-width: 0.8"/>
     </g>
     <g id="line2d_34">
      <g>
       <use xlink:href="#md79459252a" x="108" y="81.758988" style="fill: #a9a9a9; stroke: #a9a9a9; stroke-width: 0.8"/>
      </g>
     </g>
     <g id="text_17">
      <!-- 5600 -->
      <g style="fill: #a9a9a9" transform="translate(75.55 85.558206) scale(0.1 -0.1)">
       <use xlink:href="#DejaVuSans-35"/>
       <use xlink:href="#DejaVuSans-36" x="63.623047"/>
       <use xlink:href="#DejaVuSans-30" x="127.246094"/>
       <use xlink:href="#DejaVuSans-30" x="190.869141"/>
      </g>
     </g>
    </g>
    <g id="ytick_9">
     <g id="line2d_35">
      <path d="M 108 49.461647 
L 777.6 49.461647 
" clip-path="url(#p9a34e637c3)" style="fill: none; stroke-dasharray: 5.12,1.28,0.8,1.28; stroke-dashoffset: 0; stroke: #b0b0b0; stroke-width: 0.8"/>
     </g>
     <g id="line2d_36">
      <g>
       <use xlink:href="#md79459252a" x="108" y="49.461647" style="fill: #a9a9a9; stroke: #a9a9a9; stroke-width: 0.8"/>
      </g>
     </g>
     <g id="text_18">
      <!-- 6400 -->
      <g style="fill: #a9a9a9" transform="translate(75.55 53.260866) scale(0.1 -0.1)">
       <use xlink:href="#DejaVuSans-36"/>
       <use xlink:href="#DejaVuSans-34" x="63.623047"/>
       <use xlink:href="#DejaVuSans-30" x="127.246094"/>
       <use xlink:href="#DejaVuSans-30" x="190.869141"/>
      </g>
     </g>
    </g>
   </g>
   <g id="line2d_37">
    <path d="M 138.436364 307.719257 
L 141.89832 307.436655 
L 142.475312 307.194425 
L 144.20629 306.992566 
L 147.668246 306.306248 
L 151.130202 306.023646 
L 152.284188 305.579558 
L 152.861181 304.852868 
L 153.438173 304.449151 
L 154.015166 303.197629 
L 154.592159 303.116886 
L 155.169151 302.672797 
L 156.323137 302.107594 
L 158.631107 300.33124 
L 159.785093 299.887152 
L 160.362085 299.483435 
L 162.670056 298.474143 
L 163.247049 297.585966 
L 164.401034 296.778533 
L 164.978027 296.536302 
L 170.747953 295.728869 
L 171.324946 295.446267 
L 175.363895 295.123294 
L 177.094873 294.679205 
L 182.287807 293.992887 
L 182.8648 293.669913 
L 183.441792 293.58917 
L 184.018785 293.34694 
L 185.17277 293.145082 
L 185.749763 293.10471 
L 186.903748 292.86248 
L 187.480741 292.822108 
L 189.788712 292.256905 
L 191.51969 292.095418 
L 192.673675 291.974303 
L 193.250668 291.812816 
L 193.82766 291.772445 
L 195.558639 291.247613 
L 196.712624 291.16687 
L 197.866609 291.005383 
L 199.020595 290.763153 
L 199.597587 290.601666 
L 200.17458 289.834604 
L 201.905558 289.188657 
L 203.636536 288.744569 
L 204.213529 288.461967 
L 204.790521 288.421596 
L 207.675485 287.614162 
L 208.82947 287.533419 
L 209.406463 287.452675 
L 211.137441 286.927844 
L 213.445411 286.36264 
L 214.022404 286.12041 
L 214.599397 286.039667 
L 215.176389 285.757065 
L 220.946316 284.90926 
L 223.83128 284.101826 
L 224.408272 283.738481 
L 226.716243 283.132906 
L 229.024214 281.962128 
L 230.755192 281.558411 
L 231.332184 281.477667 
L 231.909177 281.195066 
L 233.063162 280.993207 
L 234.217148 280.468376 
L 237.102111 279.741685 
L 238.833089 279.297597 
L 239.410082 279.055367 
L 239.987075 278.934252 
L 240.564067 278.692022 
L 241.14106 278.611278 
L 242.295045 278.16719 
L 243.449031 278.086447 
L 244.603016 277.68273 
L 247.487979 277.238641 
L 248.064972 277.036783 
L 249.218957 276.996411 
L 251.526928 276.71381 
L 252.680913 276.148606 
L 259.027833 273.443704 
L 259.604826 273.120731 
L 260.181818 272.515155 
L 261.335804 270.819545 
L 261.912796 270.658058 
L 262.489789 270.658058 
L 263.643774 269.810253 
L 264.220767 269.648766 
L 264.79776 269.366165 
L 265.374752 269.24505 
L 265.951745 268.720218 
L 266.528738 268.558731 
L 268.259716 267.710926 
L 269.413701 266.096059 
L 269.990694 265.732714 
L 270.567686 264.763794 
L 271.144679 264.158219 
L 274.606635 262.381865 
L 275.76062 261.493688 
L 276.337613 261.130343 
L 276.914606 260.282538 
L 277.491598 259.031016 
L 278.068591 258.183211 
L 278.645584 257.739122 
L 279.222576 257.496892 
L 281.530547 255.478308 
L 282.684533 254.54976 
L 283.261525 254.0653 
L 283.838518 253.298238 
L 284.992503 252.288946 
L 287.300474 250.795194 
L 287.877467 250.310734 
L 288.454459 250.189619 
L 289.031452 249.947389 
L 290.76243 248.978468 
L 292.493408 247.888433 
L 294.224386 246.192823 
L 294.801379 245.829478 
L 295.378371 245.667991 
L 295.955364 245.385389 
L 297.109349 244.618327 
L 297.686342 244.295354 
L 298.263335 244.214611 
L 302.302283 241.751938 
L 304.610254 240.540788 
L 305.187247 240.015956 
L 307.495218 239.289266 
L 308.07221 238.88555 
L 308.649203 238.764434 
L 309.803188 238.360718 
L 311.534166 237.674399 
L 313.265144 237.028452 
L 314.41913 236.826594 
L 315.573115 235.817302 
L 317.304093 235.009869 
L 318.458078 234.32355 
L 319.612064 234.000577 
L 320.189056 233.637232 
L 320.766049 233.475745 
L 322.497027 232.38571 
L 325.381991 231.699391 
L 327.112969 230.690099 
L 327.689961 230.609356 
L 328.266954 230.407498 
L 329.420939 230.165268 
L 331.151917 228.873374 
L 332.882895 228.469657 
L 333.459888 228.267799 
L 334.036881 227.82371 
L 337.498837 226.693303 
L 338.075829 226.652932 
L 338.652822 226.491445 
L 339.806807 226.006985 
L 343.845756 224.593976 
L 344.999741 224.43249 
L 345.576734 224.271003 
L 346.153727 223.988401 
L 346.73072 223.867286 
L 348.461698 223.059853 
L 353.654632 220.59718 
L 354.231624 220.435694 
L 355.38561 219.830119 
L 356.539595 219.507145 
L 357.116588 219.426402 
L 358.270573 218.740083 
L 358.847566 218.65934 
L 360.001551 218.17488 
L 360.578544 218.053765 
L 361.155536 217.730791 
L 363.463507 217.367446 
L 364.617492 216.802243 
L 365.194485 216.317783 
L 365.771478 215.308491 
L 367.502456 214.985517 
L 369.810427 213.774367 
L 370.387419 213.653252 
L 375.003361 211.513553 
L 376.734339 211.150208 
L 377.888324 210.585005 
L 378.465317 210.342775 
L 379.042309 210.262031 
L 381.35028 209.25274 
L 383.081258 208.203076 
L 383.658251 208.122333 
L 384.235243 207.920474 
L 384.812236 207.880103 
L 387.120207 207.234156 
L 387.697199 207.193784 
L 388.274192 206.749696 
L 389.428178 206.345979 
L 391.159156 205.780775 
L 391.736148 205.41743 
L 392.313141 205.255944 
L 392.890134 204.852227 
L 393.467126 204.609997 
L 394.621112 204.004422 
L 396.929082 203.318103 
L 397.506075 203.035501 
L 399.237053 201.703236 
L 399.814046 201.582121 
L 400.968031 200.693944 
L 401.545024 200.613201 
L 402.122016 199.725024 
L 402.699009 199.482794 
L 403.276002 199.038706 
L 403.852994 198.957962 
L 405.00698 198.271644 
L 405.583972 198.150529 
L 406.160965 197.908299 
L 406.737958 197.46421 
L 407.31495 197.262352 
L 409.045928 196.091573 
L 411.353899 194.920795 
L 411.930892 194.840051 
L 413.084877 194.315219 
L 413.66187 193.992246 
L 414.238863 193.023326 
L 414.815855 192.538866 
L 415.392848 192.215892 
L 415.969841 192.094777 
L 417.123826 191.368087 
L 417.700819 191.246972 
L 418.854804 190.681769 
L 420.585782 189.955079 
L 421.739767 189.147645 
L 422.893753 187.936495 
L 425.778716 185.837168 
L 426.932701 184.908619 
L 427.509694 184.666389 
L 428.086687 184.020442 
L 428.663679 183.576354 
L 429.817665 183.172637 
L 430.97165 182.405575 
L 432.702628 181.55777 
L 433.279621 181.477027 
L 435.010599 180.548478 
L 436.164584 179.86216 
L 441.934511 177.843576 
L 442.511504 177.359116 
L 444.242482 176.713169 
L 445.396467 176.349824 
L 445.97346 175.905735 
L 448.858423 174.371612 
L 450.012408 172.110798 
L 451.166394 170.778533 
L 452.320379 170.092214 
L 454.051357 169.405896 
L 454.62835 169.325152 
L 455.205343 169.002179 
L 456.936321 168.477347 
L 459.244291 167.427683 
L 459.821284 167.064338 
L 460.975269 166.660622 
L 464.437225 164.642038 
L 465.014218 164.036463 
L 466.168203 163.430888 
L 469.053167 161.937136 
L 472.515123 160.281897 
L 473.092115 160.160782 
L 474.246101 159.757065 
L 475.977079 159.111118 
L 476.554072 158.707401 
L 477.708057 158.384428 
L 478.862042 157.94034 
L 479.439035 157.496251 
L 480.59302 157.132906 
L 484.054976 155.396924 
L 485.208962 154.508747 
L 486.362947 154.10503 
L 486.93994 153.62057 
L 487.516932 153.539827 
L 488.670918 152.692022 
L 489.824903 152.126818 
L 490.401896 151.884588 
L 490.978888 151.319385 
L 494.440844 150.067863 
L 496.171822 149.300801 
L 497.902801 148.775969 
L 499.056786 148.614483 
L 499.633779 148.372252 
L 500.210771 148.291509 
L 501.364757 147.807049 
L 501.941749 147.766677 
L 504.24972 146.918872 
L 505.980698 145.748094 
L 506.557691 145.505864 
L 507.711676 144.900288 
L 508.288669 144.738802 
L 511.750625 142.841333 
L 512.327617 142.720218 
L 514.058595 141.751298 
L 515.789573 141.186094 
L 516.366566 140.943864 
L 517.520551 140.661262 
L 520.405515 139.732714 
L 522.136493 139.450112 
L 524.444464 138.723422 
L 525.021456 138.481192 
L 525.598449 138.400449 
L 526.175442 138.117847 
L 527.329427 137.875617 
L 528.483412 137.4719 
L 529.060405 137.270042 
L 530.21439 137.148927 
L 531.368376 136.866325 
L 533.099354 136.583723 
L 533.676346 136.381865 
L 534.830332 136.26075 
L 537.715295 135.53406 
L 538.86928 135.251458 
L 539.446273 134.928484 
L 542.331237 134.201794 
L 542.908229 134.080679 
L 544.062215 133.676963 
L 545.793193 133.071387 
L 546.370185 132.990644 
L 548.101163 132.385069 
L 548.678156 132.385069 
L 549.832141 131.981352 
L 550.409134 131.416149 
L 551.563119 130.97206 
L 553.294097 130.285742 
L 554.448083 129.882025 
L 555.025075 129.76091 
L 555.602068 129.397565 
L 556.179061 129.27645 
L 556.756053 128.953476 
L 559.641017 128.105671 
L 560.218009 127.742326 
L 560.795002 127.621211 
L 561.371995 127.136751 
L 563.102973 126.813778 
L 564.256958 126.208202 
L 564.833951 125.562256 
L 565.987936 125.320026 
L 571.18087 124.22999 
L 571.757863 124.22999 
L 572.334856 123.98776 
L 574.642826 123.584044 
L 575.219819 123.341814 
L 576.950797 123.099583 
L 579.258768 122.372893 
L 580.989746 121.969177 
L 582.720724 121.525088 
L 584.451702 121.000256 
L 587.336665 120.152451 
L 587.913658 119.829478 
L 589.644636 119.264274 
L 590.221629 118.820186 
L 591.375614 118.497212 
L 591.952607 118.254982 
L 593.106592 117.932009 
L 595.414563 116.882345 
L 597.145541 116.76123 
L 599.453511 116.115284 
L 600.030504 115.751938 
L 601.184489 115.428965 
L 604.069453 114.137071 
L 604.646445 114.0967 
L 610.993365 111.957001 
L 613.301336 111.391798 
L 613.878328 111.230311 
L 615.032314 110.705479 
L 615.609306 110.624736 
L 616.763292 110.301762 
L 617.340284 109.857674 
L 617.917277 109.575072 
L 618.49427 108.888754 
L 619.071262 108.485037 
L 620.225248 108.121692 
L 620.80224 107.677603 
L 625.418182 105.780135 
L 625.995174 105.618648 
L 626.572167 105.255303 
L 628.880138 104.568984 
L 630.034123 104.003781 
L 631.188109 103.317462 
L 631.765101 103.196347 
L 632.919087 102.510029 
L 633.496079 102.267799 
L 634.650065 101.541109 
L 636.381043 100.733675 
L 636.958035 100.329958 
L 638.112021 99.926242 
L 639.266006 99.239923 
L 639.842999 99.038065 
L 640.419991 98.634348 
L 641.573977 98.230631 
L 642.150969 98.109516 
L 644.45894 97.059853 
L 647.343903 96.050561 
L 648.497889 95.889074 
L 649.074882 95.525729 
L 649.651874 95.444986 
L 650.228867 95.243127 
L 651.959845 94.920154 
L 655.998794 92.90157 
L 656.575786 92.820827 
L 658.306764 91.892278 
L 660.614735 91.004101 
L 664.076691 89.591093 
L 664.653684 89.429606 
L 665.230676 89.066261 
L 666.384662 88.904774 
L 666.961654 88.541429 
L 667.538647 88.501057 
L 668.692632 88.137712 
L 669.846618 87.572509 
L 670.423611 87.491765 
L 671.000603 87.249535 
L 671.577596 87.12842 
L 673.308574 86.361359 
L 673.885567 86.240244 
L 674.462559 85.998013 
L 677.347523 85.311695 
L 679.078501 84.665748 
L 681.386471 83.414226 
L 682.540457 82.970138 
L 683.117449 82.606793 
L 684.271435 82.364563 
L 684.848427 82.041589 
L 685.42542 81.920474 
L 687.156398 81.032297 
L 687.733391 80.870811 
L 690.041361 79.740404 
L 691.195347 79.41743 
L 692.926325 78.852227 
L 693.503318 78.650368 
L 694.657303 78.085165 
L 695.811288 77.72182 
L 696.388281 77.600705 
L 698.696252 76.51067 
L 699.273244 76.429926 
L 699.850237 76.228068 
L 701.004222 75.582121 
L 703.312193 74.532458 
L 704.466178 74.128741 
L 705.620164 73.563537 
L 706.197156 73.482794 
L 709.08212 72.231272 
L 709.659112 71.827555 
L 711.967083 71.060493 
L 712.544076 71.060493 
L 713.698061 70.535662 
L 714.275054 70.091573 
L 715.429039 69.001538 
L 717.160017 68.194104 
L 717.73701 68.072989 
L 718.314003 67.790388 
L 718.890995 67.709644 
L 719.467988 67.305928 
L 720.044981 67.184813 
L 721.198966 66.498494 
L 722.352951 65.771804 
L 723.506937 65.448831 
L 724.660922 64.883627 
L 726.3919 64.47991 
L 726.968893 64.278052 
L 727.545885 64.197309 
L 728.122878 63.914707 
L 728.699871 63.793592 
L 729.276863 63.551362 
L 729.853856 63.430247 
L 731.584834 62.703557 
L 732.738819 61.976866 
L 733.892805 61.653893 
L 734.469798 61.492406 
L 738.508746 59.635309 
L 739.085739 59.433451 
L 739.662732 59.352707 
L 741.39371 58.626017 
L 743.124688 57.616725 
L 743.70168 57.49561 
L 744.855666 56.930407 
L 746.009651 56.52669 
L 746.586644 56.04223 
L 747.163636 55.8 
L 747.163636 55.8 
" clip-path="url(#p9a34e637c3)" style="fill: none; stroke: #1f77b4; stroke-width: 1.5; stroke-linecap: square"/>
   </g>
   <g id="line2d_38">
    <path d="M 139.013356 307.8 
L 140.744334 307.719257 
L 142.475312 307.678885 
L 145.937268 307.598142 
L 148.822232 307.477027 
L 151.130202 307.477027 
L 151.707195 307.31554 
L 154.015166 307.234797 
L 155.746144 307.032938 
L 157.477122 306.871451 
L 160.939078 306.709965 
L 161.516071 306.709965 
L 162.093063 306.58885 
L 164.401034 306.508106 
L 165.555019 306.427363 
L 170.170961 306.34662 
L 173.055924 306.225505 
L 179.979836 306.144761 
L 182.8648 306.023646 
L 186.326756 305.942903 
L 188.634726 305.86216 
L 193.82766 305.781416 
L 195.558639 305.741045 
L 197.289617 305.700673 
L 199.020595 305.498814 
L 202.482551 305.458443 
L 203.636536 305.377699 
L 207.675485 305.296956 
L 214.022404 304.933611 
L 218.061353 304.852868 
L 219.215338 304.772124 
L 220.946316 304.691381 
L 224.408272 304.529894 
L 226.716243 304.489523 
L 228.447221 304.328036 
L 235.948126 303.883947 
L 238.833089 303.803204 
L 244.026023 303.520602 
L 245.757001 303.439859 
L 251.526928 303.116886 
L 257.873847 303.036142 
L 260.181818 302.793912 
L 261.335804 302.713169 
L 268.836708 302.107594 
L 272.298664 301.663505 
L 274.606635 301.582762 
L 279.222576 300.977187 
L 282.684533 300.896443 
L 284.415511 300.734957 
L 285.569496 300.694585 
L 286.723481 300.57347 
L 288.454459 300.492727 
L 289.608445 300.33124 
L 292.493408 300.008267 
L 294.801379 299.927523 
L 295.955364 299.84678 
L 298.263335 299.766037 
L 299.41732 299.685293 
L 302.302283 299.402691 
L 302.879276 299.241205 
L 306.341232 299.079718 
L 309.226196 298.998975 
L 316.7271 298.554886 
L 318.458078 298.474143 
L 325.958983 298.030054 
L 329.997932 297.949311 
L 330.574925 297.828196 
L 335.190866 297.747453 
L 339.229815 297.545594 
L 345.576734 297.464851 
L 349.615683 297.262993 
L 354.231624 297.182249 
L 358.847566 296.940019 
L 362.886514 296.859276 
L 373.849375 296.172957 
L 378.465317 296.092214 
L 384.235243 295.769241 
L 385.389229 295.728869 
L 387.697199 295.486639 
L 393.467126 295.163665 
L 396.929082 295.082922 
L 398.66006 295.04255 
L 400.391038 295.002179 
L 402.122016 294.840692 
L 406.737958 294.759949 
L 407.891943 294.598462 
L 409.045928 294.517719 
L 411.930892 294.396604 
L 413.084877 294.31586 
L 414.238863 294.235117 
L 419.431797 294.154374 
L 420.585782 294.033259 
L 422.893753 293.992887 
L 423.470745 293.871772 
L 424.624731 293.791029 
L 425.201723 293.669913 
L 426.932701 293.58917 
L 432.125636 293.306568 
L 433.279621 293.266197 
L 435.010599 293.10471 
L 436.741577 293.064338 
L 438.472555 292.983595 
L 441.357518 292.86248 
L 449.435416 292.781737 
L 453.474364 292.579878 
L 458.090306 292.499135 
L 460.398277 292.418392 
L 462.706247 292.37802 
L 463.860233 292.256905 
L 466.168203 292.176161 
L 471.93813 291.853188 
L 475.400086 291.812816 
L 477.131064 291.65133 
L 478.862042 291.610958 
L 482.900991 291.530215 
L 485.208962 291.449471 
L 492.132874 291.368728 
L 495.017837 291.247613 
L 498.479793 291.16687 
L 500.210771 290.965011 
L 503.672727 290.92464 
L 505.403705 290.763153 
L 507.711676 290.682409 
L 514.635588 290.601666 
L 517.520551 290.480551 
L 527.329427 290.440179 
L 528.483412 290.359436 
L 530.21439 290.319064 
L 537.715295 290.238321 
L 538.86928 290.157578 
L 545.2162 290.076834 
L 547.524171 289.996091 
L 554.448083 289.955719 
L 555.602068 289.874976 
L 564.256958 289.834604 
L 565.987936 289.673118 
L 580.412753 289.592374 
L 582.143731 289.552003 
L 597.722533 289.471259 
L 600.030504 289.390516 
L 609.83938 289.309773 
L 610.993365 289.229029 
L 613.878328 289.148286 
L 615.609306 288.986799 
L 618.49427 288.906056 
L 620.80224 288.825312 
L 624.264196 288.744569 
L 625.995174 288.704197 
L 628.303145 288.623454 
L 630.034123 288.583082 
L 632.919087 288.502339 
L 634.073072 288.421596 
L 637.535028 288.340852 
L 640.419991 288.219737 
L 641.573977 288.179366 
L 642.727962 288.098622 
L 644.45894 288.058251 
L 646.766911 287.977507 
L 649.074882 287.896764 
L 656.575786 287.816021 
L 658.883757 287.735277 
L 663.499698 287.654534 
L 667.538647 287.452675 
L 672.731581 287.371932 
L 673.885567 287.291189 
L 684.271435 287.210445 
L 686.002413 287.170074 
L 688.887376 287.129702 
L 691.195347 286.887472 
L 692.926325 286.8471 
L 696.388281 286.766357 
L 702.158208 286.443384 
L 705.043171 286.36264 
L 707.351142 286.281897 
L 710.813098 286.241525 
L 711.967083 286.160782 
L 714.275054 286.080038 
L 716.583025 285.837808 
L 718.890995 285.757065 
L 722.929944 285.676322 
L 723.506937 285.555207 
L 728.699871 285.474463 
L 732.161827 285.312977 
L 739.085739 285.272605 
L 739.662732 285.15149 
L 743.124688 285.070747 
L 745.432658 284.990003 
L 747.163636 284.949632 
L 747.163636 284.949632 
" clip-path="url(#p9a34e637c3)" style="fill: none; stroke: #ff7f0e; stroke-width: 1.5; stroke-linecap: square"/>
   </g>
   <g id="patch_3">
    <path d="M 108 320.4 
L 108 43.2 
" style="fill: none; stroke: #a9a9a9; stroke-width: 0.8; stroke-linejoin: miter; stroke-linecap: square"/>
   </g>
   <g id="patch_4">
    <path d="M 777.6 320.4 
L 777.6 43.2 
" style="fill: none"/>
   </g>
   <g id="patch_5">
    <path d="M 108 320.4 
L 777.6 320.4 
" style="fill: none; stroke: #a9a9a9; stroke-width: 0.8; stroke-linejoin: miter; stroke-linecap: square"/>
   </g>
   <g id="patch_6">
    <path d="M 108 43.2 
L 777.6 43.2 
" style="fill: none"/>
   </g>
   <g id="text_19">
    <!-- get_subscribe history -->
    <g style="fill: #a9a9a9" transform="translate(378.6075 37.2) scale(0.12 -0.12)">
     <defs>
      <path id="DejaVuSans-67" d="M 2906 1791 
Q 2906 2416 2648 2759 
Q 2391 3103 1925 3103 
Q 1463 3103 1205 2759 
Q 947 2416 947 1791 
Q 947 1169 1205 825 
Q 1463 481 1925 481 
Q 2391 481 2648 825 
Q 2906 1169 2906 1791 
z
M 3481 434 
Q 3481 -459 3084 -895 
Q 2688 -1331 1869 -1331 
Q 1566 -1331 1297 -1286 
Q 1028 -1241 775 -1147 
L 775 -588 
Q 1028 -725 1275 -790 
Q 1522 -856 1778 -856 
Q 2344 -856 2625 -561 
Q 2906 -266 2906 331 
L 2906 616 
Q 2728 306 2450 153 
Q 2172 0 1784 0 
Q 1141 0 747 490 
Q 353 981 353 1791 
Q 353 2603 747 3093 
Q 1141 3584 1784 3584 
Q 2172 3584 2450 3431 
Q 2728 3278 2906 2969 
L 2906 3500 
L 3481 3500 
L 3481 434 
z
" transform="scale(0.015625)"/>
      <path id="DejaVuSans-65" d="M 3597 1894 
L 3597 1613 
L 953 1613 
Q 991 1019 1311 708 
Q 1631 397 2203 397 
Q 2534 397 2845 478 
Q 3156 559 3463 722 
L 3463 178 
Q 3153 47 2828 -22 
Q 2503 -91 2169 -91 
Q 1331 -91 842 396 
Q 353 884 353 1716 
Q 353 2575 817 3079 
Q 1281 3584 2069 3584 
Q 2775 3584 3186 3129 
Q 3597 2675 3597 1894 
z
M 3022 2063 
Q 3016 2534 2758 2815 
Q 2500 3097 2075 3097 
Q 1594 3097 1305 2825 
Q 1016 2553 972 2059 
L 3022 2063 
z
" transform="scale(0.015625)"/>
      <path id="DejaVuSans-74" d="M 1172 4494 
L 1172 3500 
L 2356 3500 
L 2356 3053 
L 1172 3053 
L 1172 1153 
Q 1172 725 1289 603 
Q 1406 481 1766 481 
L 2356 481 
L 2356 0 
L 1766 0 
Q 1100 0 847 248 
Q 594 497 594 1153 
L 594 3053 
L 172 3053 
L 172 3500 
L 594 3500 
L 594 4494 
L 1172 4494 
z
" transform="scale(0.015625)"/>
      <path id="DejaVuSans-5f" d="M 3263 -1063 
L 3263 -1509 
L -63 -1509 
L -63 -1063 
L 3263 -1063 
z
" transform="scale(0.015625)"/>
      <path id="DejaVuSans-73" d="M 2834 3397 
L 2834 2853 
Q 2591 2978 2328 3040 
Q 2066 3103 1784 3103 
Q 1356 3103 1142 2972 
Q 928 2841 928 2578 
Q 928 2378 1081 2264 
Q 1234 2150 1697 2047 
L 1894 2003 
Q 2506 1872 2764 1633 
Q 3022 1394 3022 966 
Q 3022 478 2636 193 
Q 2250 -91 1575 -91 
Q 1294 -91 989 -36 
Q 684 19 347 128 
L 347 722 
Q 666 556 975 473 
Q 1284 391 1588 391 
Q 1994 391 2212 530 
Q 2431 669 2431 922 
Q 2431 1156 2273 1281 
Q 2116 1406 1581 1522 
L 1381 1569 
Q 847 1681 609 1914 
Q 372 2147 372 2553 
Q 372 3047 722 3315 
Q 1072 3584 1716 3584 
Q 2034 3584 2315 3537 
Q 2597 3491 2834 3397 
z
" transform="scale(0.015625)"/>
      <path id="DejaVuSans-75" d="M 544 1381 
L 544 3500 
L 1119 3500 
L 1119 1403 
Q 1119 906 1312 657 
Q 1506 409 1894 409 
Q 2359 409 2629 706 
Q 2900 1003 2900 1516 
L 2900 3500 
L 3475 3500 
L 3475 0 
L 2900 0 
L 2900 538 
Q 2691 219 2414 64 
Q 2138 -91 1772 -91 
Q 1169 -91 856 284 
Q 544 659 544 1381 
z
M 1991 3584 
L 1991 3584 
z
" transform="scale(0.015625)"/>
      <path id="DejaVuSans-62" d="M 3116 1747 
Q 3116 2381 2855 2742 
Q 2594 3103 2138 3103 
Q 1681 3103 1420 2742 
Q 1159 2381 1159 1747 
Q 1159 1113 1420 752 
Q 1681 391 2138 391 
Q 2594 391 2855 752 
Q 3116 1113 3116 1747 
z
M 1159 2969 
Q 1341 3281 1617 3432 
Q 1894 3584 2278 3584 
Q 2916 3584 3314 3078 
Q 3713 2572 3713 1747 
Q 3713 922 3314 415 
Q 2916 -91 2278 -91 
Q 1894 -91 1617 61 
Q 1341 213 1159 525 
L 1159 0 
L 581 0 
L 581 4863 
L 1159 4863 
L 1159 2969 
z
" transform="scale(0.015625)"/>
      <path id="DejaVuSans-63" d="M 3122 3366 
L 3122 2828 
Q 2878 2963 2633 3030 
Q 2388 3097 2138 3097 
Q 1578 3097 1268 2742 
Q 959 2388 959 1747 
Q 959 1106 1268 751 
Q 1578 397 2138 397 
Q 2388 397 2633 464 
Q 2878 531 3122 666 
L 3122 134 
Q 2881 22 2623 -34 
Q 2366 -91 2075 -91 
Q 1284 -91 818 406 
Q 353 903 353 1747 
Q 353 2603 823 3093 
Q 1294 3584 2113 3584 
Q 2378 3584 2631 3529 
Q 2884 3475 3122 3366 
z
" transform="scale(0.015625)"/>
      <path id="DejaVuSans-72" d="M 2631 2963 
Q 2534 3019 2420 3045 
Q 2306 3072 2169 3072 
Q 1681 3072 1420 2755 
Q 1159 2438 1159 1844 
L 1159 0 
L 581 0 
L 581 3500 
L 1159 3500 
L 1159 2956 
Q 1341 3275 1631 3429 
Q 1922 3584 2338 3584 
Q 2397 3584 2469 3576 
Q 2541 3569 2628 3553 
L 2631 2963 
z
" transform="scale(0.015625)"/>
      <path id="DejaVuSans-69" d="M 603 3500 
L 1178 3500 
L 1178 0 
L 603 0 
L 603 3500 
z
M 603 4863 
L 1178 4863 
L 1178 4134 
L 603 4134 
L 603 4863 
z
" transform="scale(0.015625)"/>
      <path id="DejaVuSans-20" transform="scale(0.015625)"/>
      <path id="DejaVuSans-68" d="M 3513 2113 
L 3513 0 
L 2938 0 
L 2938 2094 
Q 2938 2591 2744 2837 
Q 2550 3084 2163 3084 
Q 1697 3084 1428 2787 
Q 1159 2491 1159 1978 
L 1159 0 
L 581 0 
L 581 4863 
L 1159 4863 
L 1159 2956 
Q 1366 3272 1645 3428 
Q 1925 3584 2291 3584 
Q 2894 3584 3203 3211 
Q 3513 2838 3513 2113 
z
" transform="scale(0.015625)"/>
      <path id="DejaVuSans-6f" d="M 1959 3097 
Q 1497 3097 1228 2736 
Q 959 2375 959 1747 
Q 959 1119 1226 758 
Q 1494 397 1959 397 
Q 2419 397 2687 759 
Q 2956 1122 2956 1747 
Q 2956 2369 2687 2733 
Q 2419 3097 1959 3097 
z
M 1959 3584 
Q 2709 3584 3137 3096 
Q 3566 2609 3566 1747 
Q 3566 888 3137 398 
Q 2709 -91 1959 -91 
Q 1206 -91 779 398 
Q 353 888 353 1747 
Q 353 2609 779 3096 
Q 1206 3584 1959 3584 
z
" transform="scale(0.015625)"/>
      <path id="DejaVuSans-79" d="M 2059 -325 
Q 1816 -950 1584 -1140 
Q 1353 -1331 966 -1331 
L 506 -1331 
L 506 -850 
L 844 -850 
Q 1081 -850 1212 -737 
Q 1344 -625 1503 -206 
L 1606 56 
L 191 3500 
L 800 3500 
L 1894 763 
L 2988 3500 
L 3597 3500 
L 2059 -325 
z
" transform="scale(0.015625)"/>
     </defs>
     <use xlink:href="#DejaVuSans-67"/>
     <use xlink:href="#DejaVuSans-65" x="63.476562"/>
     <use xlink:href="#DejaVuSans-74" x="125"/>
     <use xlink:href="#DejaVuSans-5f" x="164.208984"/>
     <use xlink:href="#DejaVuSans-73" x="214.208984"/>
     <use xlink:href="#DejaVuSans-75" x="266.308594"/>
     <use xlink:href="#DejaVuSans-62" x="329.6875"/>
     <use xlink:href="#DejaVuSans-73" x="393.164062"/>
     <use xlink:href="#DejaVuSans-63" x="445.263672"/>
     <use xlink:href="#DejaVuSans-72" x="500.244141"/>
     <use xlink:href="#DejaVuSans-69" x="541.357422"/>
     <use xlink:href="#DejaVuSans-62" x="569.140625"/>
     <use xlink:href="#DejaVuSans-65" x="632.617188"/>
     <use xlink:href="#DejaVuSans-20" x="694.140625"/>
     <use xlink:href="#DejaVuSans-68" x="725.927734"/>
     <use xlink:href="#DejaVuSans-69" x="789.306641"/>
     <use xlink:href="#DejaVuSans-73" x="817.089844"/>
     <use xlink:href="#DejaVuSans-74" x="869.189453"/>
     <use xlink:href="#DejaVuSans-6f" x="908.398438"/>
     <use xlink:href="#DejaVuSans-72" x="969.580078"/>
     <use xlink:href="#DejaVuSans-79" x="1010.693359"/>
    </g>
   </g>
   <g id="legend_1">
    <g id="line2d_39">
     <path d="M 815.08 328.498438 
L 825.08 328.498438 
L 835.08 328.498438 
" style="fill: none; stroke: #1f77b4; stroke-width: 1.5; stroke-linecap: square"/>
    </g>
    <g id="text_20">
     <!-- star -->
     <g style="fill: #a9a9a9" transform="translate(843.08 331.998438) scale(0.1 -0.1)">
      <defs>
       <path id="DejaVuSans-61" d="M 2194 1759 
Q 1497 1759 1228 1600 
Q 959 1441 959 1056 
Q 959 750 1161 570 
Q 1363 391 1709 391 
Q 2188 391 2477 730 
Q 2766 1069 2766 1631 
L 2766 1759 
L 2194 1759 
z
M 3341 1997 
L 3341 0 
L 2766 0 
L 2766 531 
Q 2569 213 2275 61 
Q 1981 -91 1556 -91 
Q 1019 -91 701 211 
Q 384 513 384 1019 
Q 384 1609 779 1909 
Q 1175 2209 1959 2209 
L 2766 2209 
L 2766 2266 
Q 2766 2663 2505 2880 
Q 2244 3097 1772 3097 
Q 1472 3097 1187 3025 
Q 903 2953 641 2809 
L 641 3341 
Q 956 3463 1253 3523 
Q 1550 3584 1831 3584 
Q 2591 3584 2966 3190 
Q 3341 2797 3341 1997 
z
" transform="scale(0.015625)"/>
      </defs>
      <use xlink:href="#DejaVuSans-73"/>
      <use xlink:href="#DejaVuSans-74" x="52.099609"/>
      <use xlink:href="#DejaVuSans-61" x="91.308594"/>
      <use xlink:href="#DejaVuSans-72" x="152.587891"/>
     </g>
    </g>
    <g id="line2d_40">
     <path d="M 815.08 343.176562 
L 825.08 343.176562 
L 835.08 343.176562 
" style="fill: none; stroke: #ff7f0e; stroke-width: 1.5; stroke-linecap: square"/>
    </g>
    <g id="text_21">
     <!-- fork -->
     <g style="fill: #a9a9a9" transform="translate(843.08 346.676562) scale(0.1 -0.1)">
      <defs>
       <path id="DejaVuSans-66" d="M 2375 4863 
L 2375 4384 
L 1825 4384 
Q 1516 4384 1395 4259 
Q 1275 4134 1275 3809 
L 1275 3500 
L 2222 3500 
L 2222 3053 
L 1275 3053 
L 1275 0 
L 697 0 
L 697 3053 
L 147 3053 
L 147 3500 
L 697 3500 
L 697 3744 
Q 697 4328 969 4595 
Q 1241 4863 1831 4863 
L 2375 4863 
z
" transform="scale(0.015625)"/>
       <path id="DejaVuSans-6b" d="M 581 4863 
L 1159 4863 
L 1159 1991 
L 2875 3500 
L 3609 3500 
L 1753 1863 
L 3688 0 
L 2938 0 
L 1159 1709 
L 1159 0 
L 581 0 
L 581 4863 
z
" transform="scale(0.015625)"/>
      </defs>
      <use xlink:href="#DejaVuSans-66"/>
      <use xlink:href="#DejaVuSans-6f" x="35.205078"/>
      <use xlink:href="#DejaVuSans-72" x="96.386719"/>
      <use xlink:href="#DejaVuSans-6b" x="137.5"/>
     </g>
    </g>
   </g>
  </g>
 </g>
 <defs>
  <clipPath id="p9a34e637c3">
   <rect x="108" y="43.2" width="669.6" height="277.2"/>
  </clipPath>
 </defs>
</svg>
